<?xml version="1.0" standalone="no"?>
<!DOCTYPE svg PUBLIC "-//W3C//DTD SVG 20010904//EN"
 "http://www.w3.org/TR/2001/REC-SVG-20010904/DTD/svg10.dtd">
<svg version="1.0" xmlns="http://www.w3.org/2000/svg"
 width="1200.000000pt" height="1200.000000pt" viewBox="0 0 1200.000000 1200.000000"
 preserveAspectRatio="xMidYMid meet">
<metadata>
Created by potrace 1.11, written by Peter Selinger 2001-2013
</metadata>
<g transform="translate(0.000000,1200.000000) scale(0.100000,-0.100000)"
fill="#000000" stroke="none">
<path d="M6016 8982 c-123 -128 -116 -116 -118 -190 0 -37 0 -110 1 -162 l2
-95 -61 -65 c-150 -159 -133 -125 -144 -290 -8 -115 -16 -203 -21 -250 -2 -19
-7 -71 -11 -114 -9 -122 -15 -146 -42 -162 -17 -11 -18 -7 -15 45 8 167 9 461
1 461 -5 0 -60 -51 -122 -113 -108 -110 -113 -116 -125 -175 -10 -45 -11 -73
-3 -109 6 -26 14 -66 17 -88 l6 -40 -25 35 c-52 71 -54 73 -88 72 -18 0 -34
-4 -35 -9 -16 -48 -45 -71 -126 -102 -62 -24 -88 -40 -93 -55 -4 -11 -17 -43
-29 -71 -12 -27 -35 -81 -51 -120 -38 -93 -130 -282 -141 -288 -5 -3 -9 2 -10
11 -2 28 -32 164 -37 169 -2 3 -38 -3 -80 -12 -120 -27 -160 -61 -334 -282 -9
-12 -20 -22 -23 -23 -7 0 -33 114 -29 126 9 30 -60 9 -235 -71 -16 -7 -54 -23
-84 -35 -87 -34 -145 -62 -156 -75 -5 -6 -30 -27 -55 -46 -25 -18 -47 -36 -50
-39 -3 -3 -30 -24 -60 -47 -30 -23 -70 -56 -89 -72 l-34 -29 30 -69 c34 -76
35 -74 -42 -92 -28 -7 -66 -25 -85 -41 -83 -70 -203 -162 -315 -241 -134 -93
-140 -98 -147 -119 -3 -9 -9 1 -13 22 -11 59 -41 59 -171 -2 -60 -29 -129 -61
-154 -72 -25 -11 -97 -44 -160 -73 -63 -29 -137 -63 -165 -75 -27 -13 -84 -39
-125 -58 -41 -19 -113 -52 -160 -74 -204 -94 -240 -111 -240 -117 0 -3 -11
-19 -25 -35 -26 -31 -30 -42 -17 -48 5 -1 27 -28 49 -59 l42 -56 -182 -91
c-283 -141 -530 -254 -879 -402 -43 -18 -78 -34 -78 -36 0 -3 307 -307 602
-595 l200 -196 692 1 691 1 70 49 c39 27 115 83 170 123 l100 73 23 -42 c12
-24 44 -79 70 -123 l48 -80 592 -1 593 -1 27 36 c16 20 55 76 87 124 53 79 60
86 66 65 4 -13 20 -68 36 -123 l28 -100 611 -1 610 -1 -1 140 c0 138 4 158 35
169 8 2 12 212 15 673 l3 670 -21 23 c-17 18 -22 37 -23 76 l0 52 95 -31 96
-31 3 -438 c2 -427 3 -439 23 -468 19 -27 21 -38 14 -119 -3 -50 -8 -99 -10
-109 -23 -121 -23 -424 0 -547 2 -10 4 -27 4 -39 l1 -21 573 1 572 1 17 50
c32 97 107 307 110 311 2 1 48 -80 102 -180 l99 -183 1376 0 1375 0 85 81 c46
45 101 97 121 116 20 19 117 112 215 205 97 94 198 190 224 214 141 134 181
174 177 178 -3 3 -92 42 -198 88 -106 45 -222 95 -258 112 -36 17 -87 40 -115
53 -27 12 -164 78 -302 146 -139 68 -254 123 -255 122 -2 -2 -16 6 -33 18 -16
11 -57 34 -90 51 -208 108 -476 256 -577 320 -21 12 -40 23 -43 23 -3 0 -31
16 -61 35 -30 19 -58 35 -63 35 -5 0 -14 6 -20 14 -10 11 -5 29 22 83 l34 68
-17 45 c-9 25 -23 62 -30 82 -7 20 -21 39 -29 42 -9 3 -32 15 -53 28 -20 13
-58 36 -85 52 -52 32 -365 237 -373 246 -3 3 -41 30 -85 60 -71 48 -181 127
-311 224 -23 17 -52 38 -64 46 -12 8 -28 20 -34 25 -6 6 -36 30 -66 55 -30 25
-59 50 -65 56 -39 43 -223 123 -236 103 -4 -7 -10 -32 -14 -58 -7 -51 -7 -50
-28 -136 l-14 -60 1 135 c1 133 1 136 -25 165 -15 17 -56 68 -92 115 -35 47
-71 84 -78 84 -8 -1 -26 -5 -41 -9 -25 -6 -27 -5 -22 17 18 83 18 83 -36 163
-56 83 -99 158 -157 271 -41 81 -25 71 -252 160 -108 43 -125 53 -137 80 -11
27 -32 39 -151 93 -76 33 -142 61 -146 61 -12 0 -26 -16 -82 -92 l-49 -68 -2
-92 c-1 -51 -4 -205 -8 -343 -3 -162 -2 -269 5 -305 41 -207 71 -356 74 -361
3 -5 -197 -64 -285 -85 -8 -1 -84 -21 -168 -44 -84 -22 -154 -40 -156 -40 -1
0 -2 63 -2 141 l1 141 51 47 c28 25 71 65 97 89 33 30 47 50 47 70 1 15 -1
306 -4 646 l-5 619 -25 26 c-25 26 -26 28 -22 166 4 146 1 160 -40 204 -13 14
-24 29 -24 32 0 23 -33 12 -64 -19z m-552 -1587 c-2 -5 -6 -23 -8 -39 -6 -34
-15 -46 -14 -20 0 11 -3 48 -6 84 l-6 65 18 -40 c11 -22 18 -44 16 -50z"/>
<path d="M5658 3573 c-76 -14 -106 -29 -164 -88 -67 -67 -78 -119 -76 -364 2
-173 5 -210 21 -245 41 -94 129 -155 247 -173 118 -18 252 30 309 110 58 81
57 75 58 322 0 215 -1 233 -21 276 -61 130 -206 193 -374 162z m204 -106 c92
-53 108 -109 104 -351 -3 -169 -5 -184 -27 -223 -29 -50 -60 -76 -113 -93 -94
-30 -202 -10 -263 50 -45 44 -54 97 -54 306 -1 182 0 184 27 234 15 28 37 57
48 63 93 53 202 59 278 14z m-352 -37 c0 -5 -5 -10 -11 -10 -5 0 -7 5 -4 10 3
6 8 10 11 10 2 0 4 -4 4 -10z m-35 -140 c-3 -5 -1 -10 6 -10 10 0 10 -3 1 -12
-9 -9 -15 -9 -23 -1 -12 12 -4 33 12 33 6 0 7 -4 4 -10z m5 -100 c-6 -10 -8
-37 -5 -59 3 -27 0 -43 -10 -51 -18 -15 -21 1 -5 31 6 10 7 19 2 19 -4 0 -7
15 -6 33 3 47 3 47 19 47 13 0 14 -4 5 -20z m-20 -182 c0 6 4 12 8 12 5 0 9
-7 9 -15 0 -8 -9 -15 -19 -15 -11 0 -18 7 -18 18 0 14 2 15 10 2 6 -10 10 -11
10 -2z m9 -59 c-10 -6 -8 -9 8 -9 16 0 21 -6 20 -20 -1 -11 -5 -20 -11 -20 -5
0 -1 -10 10 -22 10 -12 13 -18 7 -14 -7 4 -13 2 -13 -3 0 -6 8 -11 18 -11 9 0
24 -5 32 -10 13 -9 13 -11 0 -20 -12 -9 -10 -10 10 -8 21 3 25 -1 24 -22 -2
-23 -1 -23 13 -5 11 16 15 17 22 6 5 -7 20 -13 35 -13 14 0 26 -4 26 -9 0 -5
11 -9 25 -9 19 0 23 -4 18 -17 -6 -16 -5 -16 10 -4 9 7 25 10 34 6 17 -6 17
-7 0 -20 -10 -7 -30 -11 -45 -9 -15 3 -38 6 -52 8 -40 6 -102 41 -135 77 -16
18 -24 28 -16 24 9 -5 12 -4 7 3 -4 7 -14 12 -22 12 -8 0 -14 6 -14 14 0 7 -7
19 -15 26 -13 11 -13 14 2 26 17 13 17 13 1 14 -21 0 -25 46 -5 53 17 6 22
-14 6 -24z m336 -198 c-3 -6 -11 -11 -16 -11 -5 0 -4 6 3 14 14 16 24 13 13
-3z"/>
<path d="M5645 3455 c-46 -21 -73 -49 -94 -94 -15 -36 -18 -66 -16 -224 1
-206 9 -236 75 -289 82 -65 237 -41 297 44 l28 41 0 213 0 212 -31 39 c-18 22
-49 45 -75 55 -54 21 -143 22 -184 3z m167 -92 c30 -27 36 -69 35 -241 -2
-151 -4 -172 -21 -191 -25 -28 -77 -41 -122 -31 -73 17 -81 43 -80 261 2 175
10 202 69 217 41 11 97 4 119 -15z m-218 -29 c3 -8 2 -12 -4 -9 -6 3 -10 10
-10 16 0 14 7 11 14 -7z m-4 -44 c12 -8 12 -10 1 -10 -11 0 -11 -3 0 -16 12
-14 11 -16 -5 -13 -11 2 -21 14 -22 27 -4 24 3 27 26 12z m6 -72 c5 -7 3 -8
-6 -3 -9 6 -10 1 -5 -16 5 -19 4 -21 -4 -9 -13 19 -14 40 -2 40 6 0 13 -5 17
-12z m-16 -110 c0 -12 -3 -18 -7 -14 -11 10 -12 36 -2 36 5 0 9 -10 9 -22z
m15 -98 c3 -5 0 -10 -7 -10 -8 -1 -5 -7 7 -16 l20 -16 -20 4 c-12 2 -21 13
-23 26 -3 22 12 30 23 12z m94 -130 c6 0 11 -4 11 -9 0 -5 3 -18 6 -28 6 -15
3 -14 -15 5 -16 16 -29 21 -44 17 -16 -4 -18 -4 -8 3 10 8 9 12 -8 24 -11 8
-18 18 -15 21 4 4 19 -2 34 -13 16 -11 33 -20 39 -20z m194 23 c-7 -2 -19 -2
-25 0 -7 3 -2 5 12 5 14 0 19 -2 13 -5z m-106 -59 c-3 -3 -12 -4 -19 -1 -8 3
-5 6 6 6 11 1 17 -2 13 -5z"/>
<path d="M7228 3585 c-1 -2 -28 -6 -58 -10 -110 -13 -198 -88 -230 -197 -18
-60 -20 -89 -17 -270 4 -219 9 -242 70 -309 27 -30 104 -77 139 -85 110 -26
193 -17 284 29 54 28 94 72 124 140 27 60 29 423 4 504 -31 99 -133 180 -238
190 -28 2 -56 6 -63 8 -6 2 -13 2 -15 0z m140 -119 c45 -28 79 -71 93 -119 10
-31 13 -313 5 -388 -11 -106 -113 -179 -241 -174 -93 5 -179 63 -199 135 -13
44 -17 372 -5 422 23 102 123 163 246 154 43 -4 74 -13 101 -30z m-384 -182
c4 -9 4 -19 1 -22 -7 -8 -35 19 -29 29 8 14 21 11 28 -7z m4 -93 c-6 -10 -18
-17 -25 -14 -17 7 2 33 23 33 11 0 12 -4 2 -19z m-5 -74 c-9 -41 -13 -48 -23
-42 -6 4 -6 15 0 30 7 18 6 25 -3 25 -8 0 -7 3 3 9 20 13 29 5 23 -22z m-4
-125 c-5 -2 -17 -1 -27 3 -15 6 -15 8 3 15 12 4 23 3 27 -4 4 -6 3 -13 -3 -14z
m1 -37 c-8 -9 -5 -14 11 -18 18 -5 19 -9 9 -27 -8 -15 -8 -25 -1 -34 6 -7 7
-16 3 -20 -4 -4 -2 -6 3 -5 6 2 20 -1 33 -5 20 -7 21 -10 10 -24 -11 -13 -11
-15 4 -9 10 3 20 2 23 -3 3 -4 0 -10 -7 -12 -7 -3 -5 -7 6 -11 10 -4 15 -3 11
3 -9 15 17 11 39 -5 10 -8 23 -12 27 -9 9 5 41 -11 73 -36 14 -11 17 -11 12
-2 -6 10 -3 13 10 10 11 -2 19 -10 19 -18 0 -15 -4 -15 -96 -7 -14 1 -32 7
-40 14 -8 6 -27 15 -42 18 -16 4 -32 17 -37 29 -5 11 -9 17 -9 13 -1 -9 -31
18 -31 28 0 3 5 3 12 -1 7 -4 8 -3 4 4 -4 7 -16 12 -27 12 -13 0 -18 4 -13 12
4 6 -1 17 -12 25 -19 14 -19 14 1 25 19 11 19 11 0 18 -21 7 -27 40 -10 52 15
11 27 -2 15 -17z"/>
<path d="M7126 3439 c-34 -23 -55 -46 -68 -76 -19 -42 -21 -59 -19 -153 0 -25
0 -56 -1 -70 0 -14 1 -59 2 -100 5 -129 37 -186 120 -215 120 -42 256 18 276
122 10 47 10 335 1 387 -7 39 -37 84 -71 106 -25 16 -50 21 -126 27 -61 4 -68
2 -114 -28z m169 -62 c12 -4 29 -21 39 -38 16 -27 18 -54 18 -197 0 -94 -5
-179 -11 -195 -21 -55 -134 -69 -180 -23 -26 26 -26 28 -29 207 -3 154 -1 184
13 205 28 43 91 60 150 41z m-198 -49 c-3 -8 -6 -5 -6 6 -1 11 2 17 5 13 3 -3
4 -12 1 -19z m-4 -50 c4 -12 4 -24 1 -27 -8 -9 -37 27 -30 38 11 17 23 13 29
-11z m3 -68 c0 -11 -5 -19 -10 -17 -14 5 -16 37 -2 37 6 0 12 -9 12 -20z m-15
-92 c0 -7 2 -21 4 -30 2 -10 -1 -18 -7 -18 -5 0 -8 6 -5 13 2 6 0 20 -5 30 -5
11 -5 17 2 17 5 0 10 -6 11 -12z m17 -119 c-11 -7 -10 -11 2 -19 8 -5 10 -10
4 -10 -16 0 -37 27 -30 39 4 6 14 7 22 4 13 -5 13 -7 2 -14z m67 -104 c18 -13
35 -22 37 -19 3 3 8 -4 11 -16 6 -24 -5 -26 -23 -5 -7 9 -21 13 -31 10 -11 -4
-19 -2 -19 5 0 6 6 8 13 4 6 -4 1 5 -12 19 -31 34 -18 35 24 2z m222 9 c-3 -3
-12 -4 -19 -1 -8 3 -5 6 6 6 11 1 17 -2 13 -5z m-100 -60 c-3 -3 -12 -4 -19
-1 -8 3 -5 6 6 6 11 1 17 -2 13 -5z"/>
<path d="M4884 3571 c-73 -19 -132 -71 -163 -144 -43 -99 -24 -127 81 -124 49
1 73 6 76 15 19 58 107 86 146 46 21 -20 20 -71 -2 -110 -18 -33 -121 -186
-242 -359 -98 -140 -103 -150 -86 -168 20 -19 545 -23 571 -3 13 10 18 28 18
84 2 99 0 100 -145 101 -108 1 -110 6 -35 105 92 123 104 140 127 186 34 68
35 165 3 227 -54 102 -119 143 -238 148 -44 2 -94 0 -111 -4z m93 -17 c-3 -3
-12 -4 -19 -1 -8 3 -5 6 6 6 11 1 17 -2 13 -5z m84 -19 c13 2 31 0 39 -5 13
-9 13 -11 0 -20 -12 -8 -11 -10 7 -10 12 0 25 -5 28 -11 4 -6 13 -8 21 -5 8 3
14 -1 14 -9 0 -17 -20 -16 -35 2 -5 6 -19 13 -30 15 -11 2 -20 8 -20 15 0 6
-3 15 -7 19 -5 4 -8 2 -8 -5 0 -9 -6 -11 -17 -6 -10 4 -25 8 -33 10 -8 2 -16
4 -18 4 -2 1 0 6 3 11 5 8 11 8 19 1 7 -6 23 -8 37 -6z m-172 2 c-39 -30 -69
-46 -67 -35 2 7 14 18 28 25 23 11 49 17 39 10z m184 -62 c22 -10 50 -36 65
-57 53 -80 26 -181 -88 -338 -88 -121 -163 -240 -156 -248 4 -4 68 -7 142 -8
129 -1 162 -7 137 -22 -21 -13 -312 -7 -325 6 -9 9 -4 23 22 59 79 110 260
386 261 396 0 7 2 23 4 37 9 64 -21 126 -76 154 -13 6 -47 13 -76 15 -57 3
-125 -25 -143 -59 -14 -27 -40 -27 -33 0 5 19 41 50 87 76 30 16 136 10 179
-11z m-273 -19 c0 -3 -4 -8 -10 -11 -5 -3 -10 -1 -10 4 0 6 5 11 10 11 6 0 10
-2 10 -4z m178 -27 c-20 -13 -28 -11 -22 5 3 8 12 12 21 9 12 -5 12 -7 1 -14z
m-45 -8 c-3 -11 -12 -22 -20 -25 -9 -4 -11 -2 -7 6 5 8 2 9 -10 5 -12 -5 -16
-3 -13 5 2 7 11 12 20 10 8 -1 18 2 22 8 10 16 14 12 8 -9z m-159 -12 c-7 -11
-34 -12 -34 -1 0 14 11 21 26 15 8 -3 11 -9 8 -14z m256 6 c0 -8 -4 -15 -10
-15 -5 0 -10 5 -10 11 0 5 -5 7 -12 3 -7 -4 -8 -3 -4 4 10 17 36 15 36 -3z
m63 -41 c-3 -8 -7 -14 -10 -14 -3 0 -3 7 1 15 3 8 1 15 -4 15 -6 0 -10 5 -10
11 0 8 4 8 14 -1 8 -6 12 -18 9 -26z m-273 -22 c0 -2 -6 -2 -12 1 -7 2 -18 -3
-24 -11 -14 -19 -44 -9 -44 15 0 14 2 15 9 4 5 -8 14 -10 21 -6 9 6 8 10 -5
18 -13 7 -14 11 -5 17 11 7 60 -24 60 -38z m388 26 c14 -14 16 -32 3 -24 -5 4
-11 3 -14 -1 -2 -5 -2 -2 0 6 2 8 -2 18 -9 23 -7 4 -8 8 -2 8 5 0 15 -5 22
-12z m-359 -29 c-16 -10 -23 -4 -14 10 3 6 11 8 17 5 6 -4 5 -9 -3 -15z m355
-64 c3 -8 1 -15 -4 -15 -6 0 -10 7 -10 15 0 8 2 15 4 15 2 0 6 -7 10 -15z
m-84 -178 c0 -8 -7 -14 -15 -14 -11 0 -12 4 -4 14 6 7 13 13 15 13 2 0 4 -6 4
-13z"/>
<path d="M6308 3570 c-37 -3 -73 -11 -80 -18 -17 -17 -18 -426 -1 -443 8 -8
55 -13 140 -13 108 -1 133 -4 161 -21 50 -30 64 -114 26 -156 -36 -40 -121
-29 -163 22 -24 28 -32 31 -95 33 -56 2 -73 -1 -88 -16 -17 -17 -17 -20 3 -75
43 -118 143 -185 279 -186 62 -1 84 3 131 26 69 33 97 60 134 129 25 45 29 66
32 139 2 75 -1 94 -22 137 -45 93 -131 141 -264 146 -76 4 -101 16 -101 50 0
51 14 56 167 57 179 2 183 4 183 99 0 44 -4 72 -12 77 -16 10 -339 20 -430 13z
m242 -41 c0 -14 -16 -11 -29 5 -10 12 -8 13 8 9 12 -3 21 -9 21 -14z m-195 1
c3 -5 1 -10 -4 -10 -6 0 -11 5 -11 10 0 6 2 10 4 10 3 0 8 -4 11 -10z m98 1
c-4 -3 -10 -10 -14 -14 -3 -4 -11 -2 -18 6 -9 12 -7 15 14 15 14 0 22 -3 18
-7z m144 3 c-3 -3 -12 -4 -19 -1 -8 3 -5 6 6 6 11 1 17 -2 13 -5z m53 2 c0 -3
-4 -8 -10 -11 -5 -3 -10 -1 -10 4 0 6 5 11 10 11 6 0 10 -2 10 -4z m8 -58 c-4
-10 -45 -13 -156 -14 -99 -1 -157 -6 -166 -13 -18 -15 -17 -214 1 -232 7 -7
49 -13 99 -15 113 -5 175 -25 213 -71 90 -109 41 -299 -89 -340 -52 -16 -115
-15 -160 3 -53 22 -115 94 -79 94 6 0 21 -13 35 -29 32 -39 83 -55 151 -48 66
7 94 24 131 79 22 34 27 52 26 102 -1 77 -29 128 -88 158 -39 20 -58 22 -226
28 -47 1 -50 9 -54 146 -2 104 0 132 12 147 13 15 36 17 184 17 131 0 169 -3
166 -12z m-174 -56 c3 -5 -8 -9 -25 -9 -19 0 -25 3 -17 9 17 10 35 10 42 0z
m-104 -132 c0 -5 -7 -7 -15 -4 -8 4 -15 8 -15 10 0 2 7 4 15 4 8 0 15 -4 15
-10z m211 -203 c-1 -12 -15 -9 -19 4 -3 6 1 10 8 8 6 -3 11 -8 11 -12z m-54
-223 c-3 -3 -12 -4 -19 -1 -8 3 -5 6 6 6 11 1 17 -2 13 -5z m183 -12 c0 -5 -7
-9 -15 -9 -8 0 -15 4 -15 9 0 4 7 8 15 8 8 0 15 -4 15 -8z m-60 -60 c0 -18
-18 -42 -31 -42 -8 0 -4 34 6 50 10 16 25 11 25 -8z"/>
</g>
</svg>
