<svg id="Capa_1" enable-background="new 0 0 512 512" height="512" viewBox="0 0 512 512" width="512" xmlns="http://www.w3.org/2000/svg"><g><g><path clip-rule="evenodd" d="m368.944 77.18c-20.097-12.699-42.462-22.138-66.386-27.496v-20.295c0-10.658-8.731-19.389-19.389-19.389h-54.339c-10.686 0-19.417 8.731-19.417 19.389v20.296c-23.896 5.357-46.261 14.797-66.358 27.496l-14.371-14.343c-7.54-7.54-19.87-7.54-27.439 0l-38.409 38.409c-7.54 7.568-7.54 19.899 0 27.439l14.371 14.371c-12.727 20.097-22.167 42.462-27.524 66.358h-20.294c-10.658-.002-19.389 8.729-19.389 19.415v54.339c0 10.658 8.731 19.389 19.389 19.389h20.296c5.357 23.924 14.797 46.289 27.524 66.386l-14.371 14.343c-7.54 7.54-7.54 19.899 0 27.439l38.409 38.409c7.568 7.568 19.899 7.568 27.439 0l14.371-14.343c20.069 12.727 42.462 22.138 66.358 27.524v20.267c0 10.686 8.731 19.417 19.417 19.417h54.339c10.658 0 19.389-8.731 19.389-19.417v-20.267c23.924-5.386 46.289-14.797 66.386-27.524l14.343 14.343c7.54 7.568 19.899 7.568 27.439 0l38.409-38.409c7.568-7.54 7.568-19.899 0-27.439l-14.343-14.343c12.699-20.097 22.138-42.462 27.524-66.386h20.267c10.686 0 19.417-8.731 19.417-19.389v-54.339c0-10.686-8.731-19.417-19.417-19.417h-20.267c-5.386-23.896-14.797-46.261-27.524-66.358l14.343-14.371c7.568-7.54 7.568-19.87 0-27.439l-38.409-38.409c-7.54-7.54-19.899-7.54-27.439 0zm-145.131 21.854c17.773 0 32.173 14.4 32.173 32.173 0-17.773 14.4-32.173 32.173-32.173 16.299 0 29.763 12.104 31.889 27.807 27.949.368 50.484 23.13 50.484 51.164 0 9.099-2.381 17.631-6.548 25.029 21.004 8.419 35.801 28.969 35.801 52.95 0 24.009-14.797 44.531-35.801 52.95 4.167 7.398 6.548 15.959 6.548 25.058 0 28.034-22.535 50.796-50.484 51.164-2.126 15.704-15.59 27.807-31.889 27.807-17.773 0-32.173-14.4-32.173-32.173 0 17.773-14.4 32.173-32.173 32.173-16.271 0-29.735-12.104-31.861-27.807-27.949-.368-50.512-23.13-50.512-51.164 0-9.099 2.381-17.66 6.548-25.058-20.976-8.419-35.801-28.941-35.801-52.95 0-23.981 14.825-44.531 35.801-52.95-4.167-7.398-6.548-15.93-6.548-25.029 0-28.034 22.563-50.796 50.512-51.164 2.126-15.703 15.591-27.807 31.861-27.807z" fill="#bfdbff" fill-rule="evenodd"/></g><g><path clip-rule="evenodd" d="m370.532 178.006c0-28.034-22.535-50.796-50.484-51.164-2.126-15.704-15.59-27.807-31.889-27.807-17.773 0-32.173 14.4-32.173 32.173v249.586c0 17.773 14.4 32.173 32.173 32.173 16.299 0 29.763-12.104 31.889-27.807 27.949-.368 50.484-23.13 50.484-51.164 0-9.099-2.381-17.66-6.548-25.058 21.004-8.419 35.801-28.941 35.801-52.95 0-23.981-14.797-44.531-35.801-52.95 4.167-7.401 6.548-15.933 6.548-25.032z" fill="#ffbecb" fill-rule="evenodd"/></g><g><path clip-rule="evenodd" d="m255.986 380.793v-249.586c0-17.773-14.4-32.173-32.173-32.173-16.271 0-29.735 12.104-31.861 27.807-27.949.368-50.512 23.13-50.512 51.164 0 9.099 2.381 17.631 6.548 25.029-20.976 8.419-35.801 28.969-35.801 52.95 0 24.009 14.825 44.531 35.801 52.95-4.167 7.398-6.548 15.959-6.548 25.058 0 28.034 22.563 50.796 50.512 51.164 2.126 15.704 15.59 27.807 31.861 27.807 17.773.002 32.173-14.397 32.173-32.17z" fill="#ff7d97" fill-rule="evenodd"/></g><g><path d="m377.046 198.354c2.295-6.507 3.485-13.398 3.485-20.348 0-30.621-22.913-56.293-52.489-60.55-5.763-16.659-21.681-28.422-39.885-28.422-12.88 0-24.431 5.805-32.172 14.935-7.742-9.13-19.292-14.935-32.173-14.935-18.189 0-34.097 11.763-39.856 28.422-29.593 4.254-52.517 29.927-52.517 60.55 0 6.95 1.191 13.844 3.486 20.352-20.173 11.947-32.739 33.602-32.739 57.628 0 24.027 12.567 45.682 32.74 57.63-2.296 6.513-3.487 13.415-3.487 20.379 0 30.623 22.923 56.296 52.517 60.55 5.76 16.659 21.667 28.422 39.856 28.422 12.88 0 24.431-5.805 32.173-14.935 7.742 9.13 19.292 14.935 32.172 14.935 18.204 0 34.122-11.763 39.885-28.422 29.576-4.257 52.489-29.929 52.489-60.55 0-6.962-1.191-13.863-3.486-20.376 20.173-11.939 32.739-33.596 32.739-57.633s-12.565-45.692-32.738-57.632zm-16.782 101.299c-2.674 1.071-4.756 3.245-5.713 5.963-.956 2.718-.694 5.716.72 8.227 3.442 6.111 5.261 13.08 5.261 20.151 0 22.403-18.22 40.87-40.616 41.165-4.954.065-9.113 3.748-9.778 8.657-1.478 10.917-10.927 19.149-21.979 19.149-12.226 0-22.172-9.946-22.172-22.173v-109.896c0-5.522-4.477-10-10-10s-10 4.478-10 10v109.897c0 12.227-9.947 22.173-22.173 22.173-11.036 0-20.473-8.232-21.951-19.149-.665-4.909-4.824-8.592-9.778-8.657-22.412-.295-40.645-18.762-40.645-41.165 0-7.072 1.819-14.04 5.261-20.151 1.414-2.51 1.676-5.507.721-8.225-.956-2.717-3.037-4.891-5.709-5.963-17.936-7.198-29.525-24.34-29.525-43.67 0-19.242 11.487-36.311 29.284-43.567 4.691-1.581 9.63-2.387 14.687-2.387 11.329 0 22.21 4.149 30.638 11.685 1.908 1.706 4.289 2.545 6.662 2.545 2.748 0 5.483-1.126 7.458-3.335 3.681-4.117 3.327-10.439-.79-14.12-12.1-10.817-27.715-16.774-43.968-16.774-4.239 0-8.426.409-12.527 1.196-1.438-4.238-2.191-8.708-2.191-13.221 0-22.403 18.233-40.87 40.645-41.165 4.954-.065 9.113-3.748 9.778-8.657 1.478-10.917 10.915-19.149 21.951-19.149 12.226 0 22.173 9.946 22.173 22.173v49.889c0 5.522 4.477 10 10 10s10-4.478 10-10v-49.889c0-12.227 9.946-22.173 22.172-22.173 11.053 0 20.502 8.232 21.979 19.149.665 4.909 4.824 8.592 9.778 8.657 22.396.295 40.616 18.762 40.616 41.165 0 4.512-.753 8.983-2.191 13.221-4.101-.786-8.288-1.196-12.527-1.196-16.219 0-31.83 5.954-43.958 16.765-4.123 3.675-4.485 9.996-.811 14.119 1.976 2.216 4.716 3.346 7.468 3.346 2.368 0 4.745-.836 6.651-2.535 8.459-7.541 19.344-11.694 30.649-11.694 5.057 0 9.996.806 14.687 2.388 17.797 7.244 29.283 24.313 29.283 43.567.001 19.336-11.587 36.477-29.52 43.664z"/><path d="m175.823 256.902c-5.474-.728-10.507 3.105-11.243 8.58-.735 5.474 3.106 10.507 8.58 11.242 19.596 2.633 33.397 20.72 30.765 40.319-.735 5.474 3.106 10.507 8.58 11.242.452.061.9.09 1.344.09 4.931 0 9.224-3.647 9.898-8.67 4.1-30.528-17.399-58.701-47.924-62.803z"/><path d="m336.147 256.902c-30.509 4.104-51.994 32.277-47.894 62.804.675 5.022 4.967 8.67 9.898 8.67.443 0 .893-.029 1.344-.09 5.474-.735 9.315-5.769 8.58-11.242-2.632-19.599 11.157-37.687 30.738-40.319 5.474-.736 9.314-5.771 8.578-11.244s-5.773-9.318-11.244-8.579z"/><path d="m482.583 199.413h-12.419c-5.077-19.252-12.705-37.641-22.751-54.848l8.779-8.797c5.55-5.529 8.611-12.904 8.619-20.766.007-7.875-3.049-15.272-8.605-20.829l-38.409-38.408c-5.536-5.535-12.919-8.584-20.791-8.584s-15.255 3.049-20.791 8.584l-8.793 8.793c-17.266-10.064-35.661-17.687-54.865-22.731v-12.438c.001-16.205-13.182-29.389-29.388-29.389h-54.339c-16.221 0-29.417 13.184-29.417 29.389v12.44c-19.194 5.048-37.582 12.67-54.844 22.733l-8.814-8.797c-11.443-11.443-30.09-11.447-41.582 0l-38.421 38.423c-11.435 11.479-11.429 30.126.013 41.568l8.816 8.816c-10.073 17.247-17.702 35.634-22.753 54.841h-12.44c-16.204 0-29.388 13.196-29.388 29.417v54.34c0 16.205 13.184 29.389 29.389 29.389h12.438c5.049 19.217 12.677 37.61 22.751 54.862l-8.813 8.795c-5.535 5.535-8.583 12.919-8.583 20.791s3.048 15.255 8.584 20.791l38.408 38.408c5.557 5.556 12.986 8.6 20.829 8.604 7.861-.007 15.236-3.067 20.745-8.598l8.814-8.797c17.178 10.038 35.568 17.665 54.851 22.748v12.419c0 16.221 13.196 29.417 29.417 29.417h54.339c16.205 0 29.389-13.196 29.389-29.417v-12.417c19.264-5.075 37.66-12.702 54.87-22.749l8.775 8.775c5.537 5.558 12.925 8.618 20.804 8.618 7.878 0 15.267-3.061 20.79-8.604l38.396-38.396c5.558-5.536 8.619-12.925 8.619-20.804s-3.061-15.268-8.605-20.791l-8.793-8.793c10.058-17.254 17.686-35.648 22.753-54.864h12.417c16.221 0 29.417-13.184 29.417-29.389v-54.34c-.001-16.219-13.197-29.415-29.418-29.415zm9.417 83.757c0 5.177-4.225 9.389-9.417 9.389h-20.267c-4.677 0-8.729 3.241-9.756 7.804-5.045 22.41-13.867 43.688-26.222 63.24-2.498 3.952-1.923 9.107 1.382 12.413l14.356 14.355c1.763 1.757 2.734 4.113 2.734 6.636s-.971 4.879-2.747 6.648l-38.422 38.422c-1.756 1.763-4.113 2.733-6.635 2.733s-4.879-.971-6.648-2.747l-14.343-14.343c-3.308-3.309-8.469-3.881-12.421-1.377-19.477 12.335-40.751 21.155-63.232 26.216-4.563 1.027-7.804 5.079-7.804 9.756v20.268c0 5.192-4.212 9.417-9.389 9.417h-54.339c-5.192 0-9.417-4.225-9.417-9.417v-20.268c0-4.676-3.24-8.728-7.801-9.755-22.511-5.074-43.774-13.894-63.201-26.214-1.647-1.045-3.505-1.555-5.352-1.555-2.58 0-5.138.996-7.067 2.922l-14.392 14.364c-1.754 1.761-4.104 2.731-6.615 2.733-.003 0-.006 0-.009 0-2.522 0-4.887-.975-6.659-2.747l-38.408-38.408c-3.604-3.604-3.604-9.693-.007-13.29l14.371-14.343c3.314-3.308 3.89-8.473 1.384-12.428-12.377-19.545-21.196-40.815-26.214-63.222-1.023-4.567-5.078-7.814-9.758-7.814h-20.296c-5.177 0-9.389-4.212-9.389-9.389v-54.34c0-5.192 4.212-9.417 9.389-9.417h20.295c4.68 0 8.734-3.246 9.758-7.813 5.021-22.393 13.84-43.654 26.214-63.195 2.503-3.952 1.931-9.112-1.377-12.421l-14.371-14.371c-3.659-3.659-3.653-9.63 0-13.297l38.396-38.396c3.681-3.664 9.652-3.672 13.317-.006l14.371 14.343c3.307 3.3 8.457 3.873 12.406 1.376 19.565-12.363 40.83-21.175 63.204-26.191 4.567-1.023 7.813-5.078 7.813-9.758v-20.294c0-5.177 4.225-9.389 9.417-9.389h54.339c5.177 0 9.389 4.212 9.389 9.389v20.296c0 4.681 3.247 8.735 7.815 9.759 22.387 5.013 43.661 13.824 63.229 26.19 3.952 2.497 9.108 1.923 12.413-1.383l14.343-14.343c3.603-3.604 9.692-3.604 13.297 0l38.409 38.408c1.774 1.773 2.75 4.142 2.747 6.668-.002 2.512-.973 4.861-2.754 6.636l-14.343 14.371c-3.302 3.31-3.872 8.465-1.37 12.414 12.333 19.476 21.154 40.741 26.217 63.207 1.028 4.561 5.08 7.801 9.755 7.801h20.267c5.192 0 9.417 4.225 9.417 9.417v54.34z"/><path d="m255.986 215.996c-5.523 0-10 4.478-10 10v.057c0 5.522 4.477 9.972 10 9.972s10-4.506 10-10.028-4.477-10.001-10-10.001z"/></g></g></svg>